<svg id="visual" viewBox="0 0 900 600" width="900" height="600" xmlns="http://www.w3.org/2000/svg" xmlns:xlink="http://www.w3.org/1999/xlink" version="1.1"><rect x="0" y="0" width="900" height="600" fill="#ffffff"></rect><g transform="translate(113.41428956615584 -0.537659015353313)"><path d="M369.2 -512C444.5 -453.4 448.1 -300.1 434.1 -179.7C420.1 -59.2 388.4 28.3 377.1 141C365.9 253.6 375.2 391.4 315.7 467.9C256.3 544.4 128.1 559.7 20.2 531.9C-87.8 504.1 -175.6 433.3 -284.4 372.8C-393.3 312.4 -523.4 262.3 -597.4 163.6C-671.4 64.9 -689.5 -82.5 -638.2 -197.2C-586.9 -311.8 -466.3 -393.8 -348.3 -438.5C-230.4 -483.1 -115.2 -490.6 15.9 -512.4C146.9 -534.3 293.9 -570.5 369.2 -512" fill="#38c13d"></path></g></svg>