<svg id="visual" viewBox="0 0 900 600" width="900" height="600" xmlns="http://www.w3.org/2000/svg" xmlns:xlink="http://www.w3.org/1999/xlink" version="1.1"><rect x="0" y="0" width="900" height="600" fill="#ffffff"></rect><g transform="translate(-19.10807231973527 2.50076629373649)"><path d="M240.8 -450.4C302.3 -381.6 335.6 -297.3 377.6 -219.7C419.6 -142 470.3 -71 500 17.2C529.8 105.3 538.6 210.7 494.7 285.1C450.9 359.6 354.4 403.2 263.2 463.1C172 522.9 86 599 14.9 573.2C-56.3 547.4 -112.5 419.9 -209.1 363.1C-305.6 306.4 -442.5 320.4 -477 271.7C-511.6 223 -443.8 111.5 -437.9 3.4C-432 -104.7 -487.9 -209.3 -475.4 -296.2C-462.9 -383.1 -382 -452.2 -291.3 -504.2C-200.7 -556.2 -100.3 -591.1 -5.3 -581.9C89.7 -572.6 179.3 -519.3 240.8 -450.4" fill="#38c13d"></path></g></svg>