<svg id="visual" viewBox="0 0 900 600" width="900" height="600" xmlns="http://www.w3.org/2000/svg" xmlns:xlink="http://www.w3.org/1999/xlink" version="1.1"><rect x="0" y="0" width="900" height="600" fill="#022846"></rect><path d="M0 248L50 259C100 270 200 292 300 309.3C400 326.7 500 339.3 600 341.3C700 343.3 800 334.7 850 330.3L900 326L900 601L850 601C800 601 700 601 600 601C500 601 400 601 300 601C200 601 100 601 50 601L0 601Z" fill="#ff0066"></path><path d="M0 386L50 400.2C100 414.3 200 442.7 300 436.8C400 431 500 391 600 390.8C700 390.7 800 430.3 850 450.2L900 470L900 601L850 601C800 601 700 601 600 601C500 601 400 601 300 601C200 601 100 601 50 601L0 601Z" fill="#ff3c61"></path><path d="M0 440L50 456.7C100 473.3 200 506.7 300 506C400 505.3 500 470.7 600 468.7C700 466.7 800 497.3 850 512.7L900 528L900 601L850 601C800 601 700 601 600 601C500 601 400 601 300 601C200 601 100 601 50 601L0 601Z" fill="#ff5860"></path><path d="M0 539L50 544.2C100 549.3 200 559.7 300 549.2C400 538.7 500 507.3 600 502.3C700 497.3 800 518.7 850 529.3L900 540L900 601L850 601C800 601 700 601 600 601C500 601 400 601 300 601C200 601 100 601 50 601L0 601Z" fill="#ff6f61"></path></svg>